/* XPM */
static char * tool18__xpm[] = {
"16 16 3 1",
" 	c None",
".	c #000000",
"+	c #00FF00",
".+++....+++..+++",
".   .. .....   +",
".   ..  +      +",
".   .. ...     +",
".   ........   +",
".   ..  + ...  +",
". ++.++++++...++",
".       +   .. +",
".       +   .. +",
".       +   .. +",
".   ..  +  ... +",
".   ... + ...  +",
".    .......   +",
".     ....     +",
".              +",
"................"};
