/* XPM */
static char * tool4_xpm[] = {
"22 22 75 1",
" 	c None",
".	c #E6BD98",
"+	c #E7C09C",
"@	c #DFAC84",
"#	c #CACED1",
"$	c #E0DFDF",
"%	c #C6AB95",
"&	c #D58F66",
"*	c #CA7756",
"=	c #9FA0A0",
"-	c #DCDCDC",
";	c #AEB1B2",
">	c #C1C6C8",
",	c #C6B6AF",
"'	c #A5A5A5",
")	c #8D8D8D",
"!	c #737575",
"~	c #D9DADA",
"{	c #8F9597",
"]	c #A8A8A8",
"^	c #A2A2A2",
"/	c #828282",
"(	c #676767",
"_	c #4A4949",
":	c #939393",
"<	c #757575",
"[	c #535353",
"}	c #4B4B4B",
"|	c #ACACAC",
"1	c #A7A7A7",
"2	c #878787",
"3	c #666666",
"4	c #4F4F4F",
"5	c #AEAEAE",
"6	c #ADADAD",
"7	c #969696",
"8	c #7D7D7D",
"9	c #5A5A5A",
"0	c #AAAAAA",
"a	c #8C8C8C",
"b	c #6B6B6B",
"c	c #585858",
"d	c #AFAFAF",
"e	c #B0B0B0",
"f	c #959595",
"g	c #5F5F5F",
"h	c #8B8B8B",
"i	c #696969",
"j	c #929292",
"k	c #7E7E7E",
"l	c #626262",
"m	c #9B9B9B",
"n	c #888888",
"o	c #656565",
"p	c #616161",
"q	c #ABABAB",
"r	c #717171",
"s	c #606060",
"t	c #A6A6A6",
"u	c #8E8E8E",
"v	c #7B7B7B",
"w	c #5D5D5D",
"x	c #A5A5A4",
"y	c #8F8F8F",
"z	c #5D5D5E",
"A	c #ECDBAD",
"B	c #8D8981",
"C	c #686867",
"D	c #4F5155",
"E	c #E3CC90",
"F	c #DDBE6A",
"G	c #CEA543",
"H	c #DEC070",
"I	c #D4AF4C",
"J	c #4A4437",
"                      ",
"               .+@    ",
"              #$%&*   ",
"             =-;>,    ",
"             ')!~{    ",
"            ]^/(_     ",
"            ]:<[}     ",
"           |1234      ",
"          56789       ",
"          50abc       ",
"         def/g        ",
"         d'hig        ",
"        5djkl         ",
"        5mnop         ",
"       q'ars          ",
"      ]tuvw           ",
"      xyvzc           ",
"      ABCD            ",
"      EFG             ",
"      HI              ",
"      J               ",
"                      "};
