/* XPM */
static char * tool11__xpm[] = {
"16 16 3 1",
" 	c None",
".	c #000000",
"+	c #C0C0C0",
"                ",
"   .  ... ...   ",
"  ..    .   .   ",
"   .  ...  ..   ",
"   .  .     .   ",
"  ... ... ...   ",
"                ",
"  ............  ",
"                ",
"  .   ... ...   ",
"  . . .   .     ",
"  ... ... ...   ",
"    .   . .+.   ",
"    . ... ...   ",
"                ",
"                "};
